<svg width="806" height="250" viewBox="0 0 806 250" fill="none" xmlns="http://www.w3.org/2000/svg">
<path fill-rule="evenodd" clip-rule="evenodd" d="M136 0C177.974 2.31936e-06 212 34.0264 212 76V79C212 114.693 187.394 144.638 154.22 152.801L217.492 229.839L193.537 249.514L115.911 155H103V248H76C34.0264 248 7.73119e-07 213.974 0 172V0H136ZM30 176C30 199.472 49.0279 218.5 72.5 218.5V143.484C72.5 133.195 80.6916 124.774 90.9775 124.491L137.136 123.221C161.832 122.541 181.5 102.325 181.5 77.6191C181.5 52.4244 161.076 32 135.881 32H30V176Z" fill="#F78012"/>
<path fill-rule="evenodd" clip-rule="evenodd" d="M441.325 85.9434C448.049 85.9434 454.393 87.0319 460.359 89.21C466.373 91.3406 471.676 94.6552 476.269 99.1533C480.909 103.651 484.555 109.381 487.206 116.341C489.858 123.254 491.184 131.492 491.184 141.057V148.94H415.196C415.272 155.012 416.427 160.245 418.669 164.637C420.989 169.135 424.233 172.591 428.399 175.006C432.566 177.373 437.443 178.557 443.029 178.557C446.77 178.557 450.155 178.036 453.186 176.994C456.216 175.905 458.844 174.319 461.069 172.235C463.295 170.152 464.976 167.572 466.112 164.494L490.118 167.193C488.603 173.538 485.714 179.078 481.453 183.812C477.239 188.5 471.841 192.146 465.26 194.75C458.678 197.307 451.15 198.585 442.675 198.585C431.737 198.585 422.291 196.312 414.337 191.767C406.43 187.174 400.345 180.687 396.084 172.307C391.823 163.879 389.691 153.959 389.691 142.548C389.691 131.326 391.823 121.478 396.084 113.003C400.393 104.48 406.405 97.851 414.123 93.1162C421.841 88.334 430.909 85.9434 441.325 85.9434ZM441.681 105.972C436.425 105.972 431.808 107.25 427.831 109.807C423.854 112.316 420.753 115.631 418.527 119.75C416.584 123.383 415.491 127.337 415.244 131.61H466.538C466.491 126.686 465.425 122.307 463.342 118.472C461.258 114.589 458.347 111.535 454.606 109.31C450.913 107.084 446.605 105.972 441.681 105.972Z" fill="#F78012"/>
<path d="M626.754 152.847C626.754 159.76 628.648 165.252 632.436 169.324C636.223 173.396 641.195 175.432 647.35 175.432C651.137 175.432 654.807 174.509 658.358 172.662C661.91 170.816 664.822 168.069 667.095 164.423C669.415 160.73 670.574 156.114 670.574 150.574V87.3633H696.285V196.454H671.355V177.065H670.22C667.758 183.173 663.709 188.168 658.074 192.051C652.487 195.933 645.598 197.875 637.407 197.875C630.258 197.875 623.936 196.289 618.443 193.116C612.999 189.897 608.738 185.233 605.66 179.125C602.583 172.97 601.043 165.536 601.043 156.824V87.3633H626.754V152.847Z" fill="#F78012"/>
<path d="M736.434 152.847C736.434 159.76 738.327 165.252 742.115 169.324C745.903 173.396 750.874 175.432 757.029 175.432C760.817 175.432 764.487 174.509 768.038 172.662C771.589 170.816 774.502 168.069 776.774 164.423C779.094 160.73 780.254 156.114 780.254 150.574V87.3633H805.965V196.454H781.035V177.065H779.899C777.437 183.173 773.388 188.168 767.754 192.051C762.167 195.933 755.278 197.875 747.087 197.875C739.937 197.875 733.615 196.289 728.123 193.116C722.678 189.897 718.417 185.233 715.34 179.125C712.262 172.97 710.723 165.536 710.723 156.824V87.3633H736.434V152.847Z" fill="#F78012"/>
<path fill-rule="evenodd" clip-rule="evenodd" d="M333.545 51C344.719 51 354.094 52.9417 361.67 56.8242C369.293 60.7068 375.046 66.1516 378.929 73.1592C382.859 80.1193 384.824 88.2394 384.824 97.5195C384.824 106.847 382.835 114.944 378.857 121.81C374.927 128.628 369.127 133.907 361.457 137.647C360.558 138.08 359.635 138.486 358.688 138.868L390.15 196.454H360.747L332.162 143.188H305.35V196.454H279V51H333.545ZM305.35 121.312H329.639C336.173 121.312 341.524 120.413 345.69 118.613C349.857 116.767 352.934 114.092 354.923 110.588C356.959 107.037 357.978 102.681 357.978 97.5195C357.977 92.3587 356.959 87.9553 354.923 84.3096C352.887 80.6165 349.786 77.8226 345.619 75.9287C341.453 73.9875 336.078 73.0166 329.497 73.0166H305.35V121.312Z" fill="#F78012"/>
<path d="M541.63 168.4H542.767L567.908 87.3633H595.252L556.402 196.454H527.993L489.145 87.3633H516.559L541.63 168.4Z" fill="#F78012"/>
</svg>
